<?xml version="1.0" encoding="UTF-8"?> <svg xmlns="http://www.w3.org/2000/svg" xmlns:xlink="http://www.w3.org/1999/xlink" width="793.375" height="230.271" viewBox="0 0 793.375 230.271"> <defs> <linearGradient id="linear-gradient" x1="0.001" y1="0.49" x2="0.999" y2="0.49" gradientUnits="objectBoundingBox"> <stop offset="0" stop-color="#e3212e"></stop> <stop offset="0.502" stop-color="#e3212e"></stop> <stop offset="1" stop-color="#e3212e"></stop> </linearGradient> </defs> <g id="Group_1" data-name="Group 1" transform="translate(-301.152 -62.203)"> <path id="Path_3" data-name="Path 3" d="M3.24-32.13H6.3v13.95H25.38V-32.13h3.06V0H25.38V-15.57H6.3V0H3.24ZM40.9.63A11.62,11.62,0,0,1,37.868.248,6.823,6.823,0,0,1,35.393-.968a5.811,5.811,0,0,1-1.665-2.115A7.035,7.035,0,0,1,33.12-6.12a6,6,0,0,1,1.08-3.8,6.8,6.8,0,0,1,2.857-2.092,16.3,16.3,0,0,1,4.005-1.013q2.228-.292,4.522-.562.855-.09,1.553-.225a2.761,2.761,0,0,0,1.147-.472,2.188,2.188,0,0,0,.7-.923,3.977,3.977,0,0,0,.248-1.53,5.172,5.172,0,0,0-.472-2.362,3.736,3.736,0,0,0-1.305-1.462,5.262,5.262,0,0,0-1.935-.743,13.078,13.078,0,0,0-2.363-.2,7.155,7.155,0,0,0-4.41,1.283,5.025,5.025,0,0,0-1.8,4.117H34.11q.27-4.095,2.813-5.94A10.957,10.957,0,0,1,43.515-23.9a16.262,16.262,0,0,1,3.06.292,7.394,7.394,0,0,1,2.745,1.1,6,6,0,0,1,1.98,2.273,8.2,8.2,0,0,1,.765,3.8v12.33a1.492,1.492,0,0,0,1.665,1.71,2,2,0,0,0,.9-.18V-.18q-.495.09-.877.135A8.543,8.543,0,0,1,52.785,0a4.29,4.29,0,0,1-1.733-.293,2.325,2.325,0,0,1-1.012-.832,3.124,3.124,0,0,1-.472-1.283,11.011,11.011,0,0,1-.112-1.643h-.09a18.944,18.944,0,0,1-1.552,2A7.718,7.718,0,0,1,46.057-.585a8.053,8.053,0,0,1-2.227.9A12.134,12.134,0,0,1,40.9.63Zm.225-2.34a9.754,9.754,0,0,0,3.1-.5,7.639,7.639,0,0,0,2.588-1.44,6.991,6.991,0,0,0,1.755-2.3A6.944,6.944,0,0,0,49.23-9v-3.69h-.09a1.624,1.624,0,0,1-1.035.72,10.562,10.562,0,0,1-1.35.315q-1.8.315-3.713.563a20.36,20.36,0,0,0-3.487.742,6.646,6.646,0,0,0-2.588,1.44A3.4,3.4,0,0,0,35.955-6.3a4.128,4.128,0,0,0,.427,1.913,4.64,4.64,0,0,0,1.147,1.44,5.054,5.054,0,0,0,1.643.922A6.016,6.016,0,0,0,41.13-1.71Zm14.175-.675H58.05a24.809,24.809,0,0,0,2.43-7.38,60.138,60.138,0,0,0,.765-10.4v-3.06H76.86V-2.385h3.465V7.38H77.49V0H58.14V7.38H55.305Zm18.72,0v-18.45H63.99v1.62a51.219,51.219,0,0,1-.855,10.057,27.076,27.076,0,0,1-2.16,6.773ZM92.7.63a10.777,10.777,0,0,1-4.77-.968,8.784,8.784,0,0,1-3.24-2.655,11.572,11.572,0,0,1-1.868-3.892,17.725,17.725,0,0,1-.607-4.725,16.865,16.865,0,0,1,.607-4.5,12.085,12.085,0,0,1,1.868-3.937,9.436,9.436,0,0,1,3.24-2.79A10,10,0,0,1,92.7-23.9a9.509,9.509,0,0,1,4.77,1.125,9.5,9.5,0,0,1,3.217,2.947,12.216,12.216,0,0,1,1.777,4.185,18.365,18.365,0,0,1,.45,4.792H85.05a12.485,12.485,0,0,0,.428,3.2A8.741,8.741,0,0,0,86.85-4.725a7.858,7.858,0,0,0,2.385,2.16A6.669,6.669,0,0,0,92.7-1.71a6.893,6.893,0,0,0,4.86-1.62,8.522,8.522,0,0,0,2.43-4.32h2.835a11.321,11.321,0,0,1-3.307,6.12Q97.11.63,92.7.63Zm7.38-13.86a10.242,10.242,0,0,0-.563-3.105,8.5,8.5,0,0,0-1.463-2.632,7.248,7.248,0,0,0-2.3-1.845,6.569,6.569,0,0,0-3.06-.7,6.669,6.669,0,0,0-3.1.7,7.248,7.248,0,0,0-2.3,1.845,9.192,9.192,0,0,0-1.507,2.655,13.014,13.014,0,0,0-.743,3.083Zm13.68-.27-9.045-9.72h3.825l10.665,11.88V-23.22h2.835v11.835L132.705-23.22h3.825l-9.045,9.72L137.52,0h-3.465l-8.55-11.61-3.465,3.6V0h-2.835V-8.01l-3.465-3.6L107.19,0h-3.465Zm26.1-9.72H142.7v9.855H155.88V-23.22h2.835V0H155.88V-10.98H142.7V0H139.86Zm24.165,0h2.835V-13.9h7.515a7.659,7.659,0,0,1,5.355,1.8,6.523,6.523,0,0,1,1.98,5.085,6.741,6.741,0,0,1-1.98,5.153A7.487,7.487,0,0,1,174.375,0h-10.35ZM173.7-2.385a5.679,5.679,0,0,0,3.8-1.17,4.3,4.3,0,0,0,1.372-3.465,4.1,4.1,0,0,0-1.372-3.4,5.916,5.916,0,0,0-3.8-1.1h-6.84v9.135ZM186.075-23.22h2.835V0h-2.835Zm8.145,0h2.835V-3.33L209.88-23.22h3.51V0h-2.835V-19.89L197.73,0h-3.51Zm9.495-3.42a6.12,6.12,0,0,1-4.41-1.508,7.018,7.018,0,0,1-1.935-4.343h1.755a4.049,4.049,0,0,0,1.417,2.7,4.881,4.881,0,0,0,3.218.99,5,5,0,0,0,3.172-.967,4.451,4.451,0,0,0,1.6-2.723h1.755a7.487,7.487,0,0,1-2.115,4.343A6.284,6.284,0,0,1,203.715-26.64Zm27.495,3.42h10.62a9.279,9.279,0,0,1,5.49,1.395,4.728,4.728,0,0,1,1.935,4.1,5.57,5.57,0,0,1-1.057,3.465,5.447,5.447,0,0,1-2.947,1.935v.09a6.247,6.247,0,0,1,3.6,1.8,5.579,5.579,0,0,1,1.305,3.96,5.763,5.763,0,0,1-2.115,4.815Q245.925,0,241.83,0H231.21Zm10.3,20.835a7.124,7.124,0,0,0,4.388-1.1,3.931,3.931,0,0,0,1.417-3.307A3.669,3.669,0,0,0,245.9-9.9a7.237,7.237,0,0,0-4.388-1.08h-7.47v8.6Zm0-10.8a5.6,5.6,0,0,0,3.668-1.035,3.449,3.449,0,0,0,1.238-2.79q0-3.825-4.905-3.825h-7.47v7.65ZM263.835.63a10.777,10.777,0,0,1-4.77-.968,8.784,8.784,0,0,1-3.24-2.655,11.571,11.571,0,0,1-1.868-3.892,17.725,17.725,0,0,1-.607-4.725,16.865,16.865,0,0,1,.607-4.5,12.084,12.084,0,0,1,1.868-3.937,9.436,9.436,0,0,1,3.24-2.79,10,10,0,0,1,4.77-1.058,9.509,9.509,0,0,1,4.77,1.125,9.5,9.5,0,0,1,3.217,2.947,12.217,12.217,0,0,1,1.777,4.185,18.365,18.365,0,0,1,.45,4.792H256.185a12.485,12.485,0,0,0,.428,3.2,8.741,8.741,0,0,0,1.372,2.925,7.857,7.857,0,0,0,2.385,2.16,6.669,6.669,0,0,0,3.465.855,6.893,6.893,0,0,0,4.86-1.62,8.522,8.522,0,0,0,2.43-4.32h2.835a11.321,11.321,0,0,1-3.308,6.12Q268.245.63,263.835.63Zm7.38-13.86a10.242,10.242,0,0,0-.562-3.105,8.5,8.5,0,0,0-1.462-2.632,7.248,7.248,0,0,0-2.295-1.845,6.569,6.569,0,0,0-3.06-.7,6.669,6.669,0,0,0-3.105.7,7.248,7.248,0,0,0-2.3,1.845,9.193,9.193,0,0,0-1.507,2.655,13.016,13.016,0,0,0-.743,3.083ZM287.91.63a10.6,10.6,0,0,1-5.265-1.17,9.078,9.078,0,0,1-3.285-3.1A13.01,13.01,0,0,1,277.65-8.1a27.026,27.026,0,0,1-.495-5.22q0-1.665.135-3.487a31.923,31.923,0,0,1,.473-3.6,26.17,26.17,0,0,1,.878-3.4,12.552,12.552,0,0,1,1.395-2.925,9.2,9.2,0,0,1,3.78-3.465,15.53,15.53,0,0,1,5.535-1.26l2.16-.135a8.224,8.224,0,0,0,2.43-.36,1.677,1.677,0,0,0,.9-.855h3.15a3.6,3.6,0,0,1-1.823,2.813,11.789,11.789,0,0,1-4.432.922l-3.42.225a8.044,8.044,0,0,0-6.03,2.835q-2.07,2.565-2.835,7.965h.135A9.175,9.175,0,0,1,283.05-21.8a9.566,9.566,0,0,1,5.13-1.417,10.8,10.8,0,0,1,4.253.81,9.368,9.368,0,0,1,3.307,2.34,10.638,10.638,0,0,1,2.16,3.735,15.04,15.04,0,0,1,.765,4.95,15.093,15.093,0,0,1-.765,4.927,10.894,10.894,0,0,1-2.182,3.8,9.671,9.671,0,0,1-3.4,2.43A11.013,11.013,0,0,1,287.91.63Zm0-2.34a7.274,7.274,0,0,0,3.173-.7,7.319,7.319,0,0,0,2.52-1.98,9.345,9.345,0,0,0,1.643-3.06,12.543,12.543,0,0,0,.585-3.937,12.18,12.18,0,0,0-.585-3.87,8.859,8.859,0,0,0-1.643-2.993,7.706,7.706,0,0,0-2.475-1.935,6.886,6.886,0,0,0-3.083-.7,7.847,7.847,0,0,0-3.285.675,7.252,7.252,0,0,0-2.542,1.912,8.858,8.858,0,0,0-1.643,2.993,12.333,12.333,0,0,0-.585,3.915,12.543,12.543,0,0,0,.585,3.937,9.344,9.344,0,0,0,1.643,3.06,7.319,7.319,0,0,0,2.52,1.98A7.274,7.274,0,0,0,287.91-1.71ZM313.38-13.1v2.79H301.995V-13.1Zm4.455-10.125h2.835V-3.33l12.825-19.89h3.51V0H334.17V-19.89L321.345,0h-3.51Zm24.48,0h2.835v9.855h13.185V-23.22h2.835V0h-2.835V-10.98H345.15V0h-2.835Zm30.06,2.385h-8.6V-23.22h20.025v2.385h-8.6V0h-2.835ZM395.775.63a10.777,10.777,0,0,1-4.77-.968,8.784,8.784,0,0,1-3.24-2.655A11.572,11.572,0,0,1,385.9-6.885a17.725,17.725,0,0,1-.608-4.725,16.865,16.865,0,0,1,.608-4.5,12.085,12.085,0,0,1,1.867-3.937,9.436,9.436,0,0,1,3.24-2.79,10,10,0,0,1,4.77-1.058,9.509,9.509,0,0,1,4.77,1.125,9.5,9.5,0,0,1,3.217,2.947,12.217,12.217,0,0,1,1.777,4.185,18.365,18.365,0,0,1,.45,4.792H388.125a12.485,12.485,0,0,0,.428,3.2,8.741,8.741,0,0,0,1.372,2.925,7.857,7.857,0,0,0,2.385,2.16,6.669,6.669,0,0,0,3.465.855,6.893,6.893,0,0,0,4.86-1.62,8.522,8.522,0,0,0,2.43-4.32H405.9a11.321,11.321,0,0,1-3.308,6.12Q400.185.63,395.775.63Zm7.38-13.86a10.242,10.242,0,0,0-.562-3.105,8.5,8.5,0,0,0-1.462-2.632,7.248,7.248,0,0,0-2.295-1.845,6.569,6.569,0,0,0-3.06-.7,6.669,6.669,0,0,0-3.105.7,7.248,7.248,0,0,0-2.3,1.845,9.193,9.193,0,0,0-1.507,2.655,13.016,13.016,0,0,0-.743,3.083Zm6.885-9.99h15.345v2.385h-12.51V0H410.04Zm17.775,0h2.61v4.41h.09a7.591,7.591,0,0,1,3.217-3.757,9.7,9.7,0,0,1,5.063-1.327,10.1,10.1,0,0,1,4.613.99,9.463,9.463,0,0,1,3.262,2.678,11.394,11.394,0,0,1,1.935,3.915,17.2,17.2,0,0,1,.63,4.7,17.129,17.129,0,0,1-.63,4.725,11.418,11.418,0,0,1-1.935,3.892,9.238,9.238,0,0,1-3.262,2.655,10.3,10.3,0,0,1-4.613.968,10.266,10.266,0,0,1-2.542-.315,8.962,8.962,0,0,1-2.318-.945A7.713,7.713,0,0,1,432.022-2.2a6.713,6.713,0,0,1-1.283-2.2h-.09V8.55h-2.835Zm10.98,21.51a6.534,6.534,0,0,0,3.465-.878,7.435,7.435,0,0,0,2.363-2.273,9.891,9.891,0,0,0,1.35-3.173,15.248,15.248,0,0,0,.427-3.577,15.248,15.248,0,0,0-.427-3.578,9.891,9.891,0,0,0-1.35-3.173,7.435,7.435,0,0,0-2.363-2.272,6.534,6.534,0,0,0-3.465-.878,8.473,8.473,0,0,0-3.937.81,6.864,6.864,0,0,0-2.5,2.16,8.509,8.509,0,0,0-1.327,3.15,18.147,18.147,0,0,0-.383,3.78,15.248,15.248,0,0,0,.427,3.577,9.341,9.341,0,0,0,1.4,3.173,7.514,7.514,0,0,0,2.52,2.273A7.624,7.624,0,0,0,438.795-1.71ZM460.17.63a11.62,11.62,0,0,1-3.038-.382,6.823,6.823,0,0,1-2.475-1.215,5.811,5.811,0,0,1-1.665-2.115,7.035,7.035,0,0,1-.607-3.038,6,6,0,0,1,1.08-3.8,6.8,6.8,0,0,1,2.858-2.092,16.3,16.3,0,0,1,4.005-1.013q2.227-.292,4.522-.562.855-.09,1.552-.225a2.761,2.761,0,0,0,1.148-.472,2.189,2.189,0,0,0,.7-.923,3.977,3.977,0,0,0,.247-1.53,5.172,5.172,0,0,0-.472-2.362,3.736,3.736,0,0,0-1.305-1.462,5.261,5.261,0,0,0-1.935-.743,13.078,13.078,0,0,0-2.362-.2,7.155,7.155,0,0,0-4.41,1.283,5.025,5.025,0,0,0-1.8,4.117h-2.835q.27-4.095,2.813-5.94A10.957,10.957,0,0,1,462.78-23.9a16.262,16.262,0,0,1,3.06.292,7.394,7.394,0,0,1,2.745,1.1,6,6,0,0,1,1.98,2.273,8.2,8.2,0,0,1,.765,3.8v12.33a1.492,1.492,0,0,0,1.665,1.71,2,2,0,0,0,.9-.18V-.18q-.5.09-.878.135A8.543,8.543,0,0,1,472.05,0a4.29,4.29,0,0,1-1.733-.293,2.325,2.325,0,0,1-1.013-.832,3.124,3.124,0,0,1-.472-1.283,11.009,11.009,0,0,1-.113-1.643h-.09a18.942,18.942,0,0,1-1.552,2,7.718,7.718,0,0,1-1.755,1.462,8.053,8.053,0,0,1-2.228.9A12.134,12.134,0,0,1,460.17.63Zm.225-2.34a9.754,9.754,0,0,0,3.1-.5,7.639,7.639,0,0,0,2.587-1.44,6.991,6.991,0,0,0,1.755-2.3A6.944,6.944,0,0,0,468.495-9v-3.69h-.09a1.624,1.624,0,0,1-1.035.72,10.562,10.562,0,0,1-1.35.315q-1.8.315-3.713.563a20.36,20.36,0,0,0-3.487.742,6.645,6.645,0,0,0-2.587,1.44A3.4,3.4,0,0,0,455.22-6.3a4.128,4.128,0,0,0,.428,1.913,4.64,4.64,0,0,0,1.147,1.44,5.054,5.054,0,0,0,1.642.922A6.016,6.016,0,0,0,460.4-1.71ZM482.85-20.835h-8.6V-23.22H494.28v2.385h-8.6V0H482.85ZM506.745.63a10.886,10.886,0,0,1-4.7-.968A10,10,0,0,1,498.6-2.97a11.492,11.492,0,0,1-2.115-3.893,15.344,15.344,0,0,1-.72-4.747,15.408,15.408,0,0,1,.72-4.725A11.458,11.458,0,0,1,498.6-20.25a10.244,10.244,0,0,1,3.443-2.655,10.675,10.675,0,0,1,4.7-.99,10.675,10.675,0,0,1,4.7.99,10.244,10.244,0,0,1,3.443,2.655,11.459,11.459,0,0,1,2.115,3.915,15.409,15.409,0,0,1,.72,4.725,15.345,15.345,0,0,1-.72,4.747A11.492,11.492,0,0,1,514.89-2.97a10,10,0,0,1-3.443,2.633A10.886,10.886,0,0,1,506.745.63Zm0-2.34a7.166,7.166,0,0,0,3.555-.855,7.805,7.805,0,0,0,2.542-2.25,10.209,10.209,0,0,0,1.53-3.172,12.894,12.894,0,0,0,.518-3.622,12.894,12.894,0,0,0-.518-3.623,10.209,10.209,0,0,0-1.53-3.173,7.805,7.805,0,0,0-2.542-2.25,7.166,7.166,0,0,0-3.555-.855,7.167,7.167,0,0,0-3.555.855,7.805,7.805,0,0,0-2.542,2.25,10.208,10.208,0,0,0-1.53,3.173,12.9,12.9,0,0,0-.518,3.623,12.9,12.9,0,0,0,.518,3.622,10.208,10.208,0,0,0,1.53,3.172,7.805,7.805,0,0,0,2.542,2.25A7.167,7.167,0,0,0,506.745-1.71Zm15.21-21.51h2.61v4.41h.09a7.591,7.591,0,0,1,3.217-3.757,9.7,9.7,0,0,1,5.063-1.327,10.1,10.1,0,0,1,4.612.99,9.463,9.463,0,0,1,3.263,2.678,11.393,11.393,0,0,1,1.935,3.915,17.2,17.2,0,0,1,.63,4.7,17.13,17.13,0,0,1-.63,4.725,11.418,11.418,0,0,1-1.935,3.892,9.238,9.238,0,0,1-3.263,2.655,10.3,10.3,0,0,1-4.612.968,10.266,10.266,0,0,1-2.542-.315,8.963,8.963,0,0,1-2.318-.945A7.713,7.713,0,0,1,526.162-2.2a6.712,6.712,0,0,1-1.282-2.2h-.09V8.55h-2.835Zm10.98,21.51a6.534,6.534,0,0,0,3.465-.878,7.434,7.434,0,0,0,2.362-2.273,9.89,9.89,0,0,0,1.35-3.173,15.25,15.25,0,0,0,.427-3.577,15.25,15.25,0,0,0-.427-3.578,9.89,9.89,0,0,0-1.35-3.173,7.434,7.434,0,0,0-2.362-2.272,6.534,6.534,0,0,0-3.465-.878A8.473,8.473,0,0,0,529-20.7a6.864,6.864,0,0,0-2.5,2.16,8.509,8.509,0,0,0-1.328,3.15,18.147,18.147,0,0,0-.383,3.78,15.247,15.247,0,0,0,.428,3.577,9.341,9.341,0,0,0,1.395,3.173,7.515,7.515,0,0,0,2.52,2.273A7.624,7.624,0,0,0,532.935-1.71Z" transform="translate(551.151 259.203)" fill="#001523"></path> <path id="Path_1" data-name="Path 1" d="M9.616,61.307,52.373,18.378c2.631-2.641-.658-5.944-3.947-4.624-3.947.66-30.92,8.587-35.524,9.907-3.944.661-9.865,5.286-9.865,9.247v25.1c0,3.3,3.29,6.6,6.578,3.3Zm0,58.781c2.631-3.3,99.993-100.388,104.6-105.013s0-7.265-3.947-7.265-21.052.66-24.34.66a12.206,12.206,0,0,0-8.552,4.624C75.4,14.415,8.3,81.782,6.984,83.108s-3.947,3.954-3.947,7.921v25.1c0,3.963,3.29,7.265,6.578,3.963h0ZM162.236,17.056c-4.606-1.321-15.789-4.623-19.734-4.623s-6.58,2.641-7.894,3.962L9.616,141.884a13.983,13.983,0,0,0-6.578,12.549c0,7.926,1.316,9.907,1.973,17.172s6.58,6.6,11.184,2.641L166.183,23.661C168.815,21.019,166.842,18.378,162.236,17.056ZM192.5,58.666A15.026,15.026,0,0,0,196.444,48.1V31.587c0-5.285-7.236-8.587-13.157-3.3L27.377,184.814c-5.92,5.944-3.948,10.567,0,13.208s5.919,5.285,11.841,7.926,7.894-1.322,9.21-2.641Zm-4.606,26.419c-3.29,3.3-122.359,122.19-126.306,126.808-4.606,4.624-2.631,7.925.657,9.907s12.5,7.925,16.447,7.925,5.263-.659,6.578-1.981l106.575-107c1.316-1.322,3.947-3.963,3.947-7.926V87.731c.652-4.629-3.294-7.27-7.9-2.646Zm1.316,58.121c-5.92,5.282-83.546,83.882-87.5,87.18-3.947,3.963-3.947,9.246,2.631,7.265,6.578-2.641,91.441-38.307,91.441-74.633v-15.85c.006-5.946-3.283-7.927-6.573-3.963Z" transform="translate(298.13 54.393)" fill-rule="evenodd" fill="url(#linear-gradient)"></path> <path id="Path_2" data-name="Path 2" d="M2563.823,191.135a4.083,4.083,0,0,1,0-5.37l41.649-41.623c2.014-2.013,1.344-3.357-4.031-3.357h-24.854a9.717,9.717,0,0,0-4.7,1.344c-1.342,1.343-53.066,52.363-54.409,54.376-2.017,2.014-4.7,2.014-4.7,0V144.816c0-2.015-.673-4.028-3.359-4.028h-16.791a3.125,3.125,0,0,0-3.358,3.357V232.76a3.6,3.6,0,0,0,3.358,3.357h20.15c1.345,0,4.031-2.685,4.031-2.685l24.181-24.167a5.039,5.039,0,0,1,6.046,0c1.345,1.343,22.168,21.483,24.182,24.167a7.522,7.522,0,0,0,6.045,2.685h28.213c3.358,0,1.345-2.685,0-4.7-2.684-1.344-40.3-38.937-41.646-40.283Zm-91.356-51.017H2359.615a3.168,3.168,0,0,0-3.359,3.356V232.09a3.174,3.174,0,0,0,3.359,3.357h17.464a3.126,3.126,0,0,0,3.359-3.357v-5.37a3.07,3.07,0,0,1,2.686-3.357h66.5a3.17,3.17,0,0,1,3.358,3.357v6.041a3.6,3.6,0,0,0,3.36,3.357h16.795a3.174,3.174,0,0,0,3.359-3.357V143.474a4.258,4.258,0,0,0-4.031-3.356Zm-19.481,55.719a5.776,5.776,0,0,1-5.37,5.376h-62.475a5.776,5.776,0,0,1-5.373-5.37V170.325a5.776,5.776,0,0,1,5.373-5.37h62.475a5.772,5.772,0,0,1,5.373,5.37v25.512Zm261.979-55.719h-88a5.677,5.677,0,0,0-4.028,1.343c-.673.671-18.14,17.454-19.481,19.468-2.017,2.015-1.345,3.357,1.342,3.357h39.635a3.17,3.17,0,0,1,3.156,2.041,3.207,3.207,0,0,1,.2,1.316v63.778a4.283,4.283,0,0,0,4.028,4.028h16.122c2.686,0,4.031-2.685,4.031-4.7v-61.1c0-4.028,1.342-5.37,5.374-5.37h37.616c4.031,0,6.046-2.015,6.046-5.37v-12.75c0-4.7-2.686-6.041-6.046-6.041Zm-374.158,0H2202.428a3.6,3.6,0,0,0-3.358,3.357V220a3.13,3.13,0,0,0,3.358,3.357h57.1v10.069a2.429,2.429,0,0,0,.131,1.068,2.453,2.453,0,0,0,2.552,1.618h18.815a2.466,2.466,0,0,0,2.687-2.685v-9.4h55.753q4.029,0,4.031-2.013V143.475c0-1.344-.673-3.357-2.687-3.357Zm-80.6,55.72a5.777,5.777,0,0,1-5.378,5.376H2229.3a5.779,5.779,0,0,1-5.374-5.372V170.326a5.776,5.776,0,0,1,5.374-5.37h25.527a5.773,5.773,0,0,1,5.378,5.37Zm59.785,0a5.776,5.776,0,0,1-5.373,5.37h-25.532a5.776,5.776,0,0,1-5.373-5.37V170.326a5.776,5.776,0,0,1,5.373-5.372h25.527a5.776,5.776,0,0,1,5.375,5.372Z" transform="translate(-1643.075 -62.552)" fill="#001523" fill-rule="evenodd"></path> </g> </svg> 