<?xml version="1.0" encoding="UTF-8"?>
<svg xmlns="http://www.w3.org/2000/svg" xmlns:xlink="http://www.w3.org/1999/xlink" viewBox="0 0 128 128" width="128px" height="128px">
<g id="surface249666873">
<path style=" stroke:none;fill-rule:nonzero;fill:rgb(99.607843%,29.411766%,29.411766%);fill-opacity:1;" d="M 14 16 C 8.484375 16 4 20.484375 4 26 L 4 94 C 4 99.515625 8.484375 104 14 104 L 114 104 C 119.515625 104 124 99.515625 124 94 L 124 26 C 124 20.484375 119.515625 16 114 16 Z M 17.695312 20 L 110.304688 20 L 65.171875 52.6875 C 64.46875 53.195312 63.523438 53.195312 62.820312 52.6875 Z M 11.59375 20.515625 L 60.476562 55.921875 C 61.53125 56.6875 62.765625 57.0625 64 57.0625 C 65.234375 57.0625 66.46875 56.6875 67.523438 55.921875 L 116.40625 20.515625 C 118.515625 21.445312 120 23.546875 120 26 L 120 94 C 120 97.304688 117.304688 100 114 100 L 108 100 L 108 43.585938 C 108 42.835938 107.578125 42.148438 106.90625 41.804688 C 106.242188 41.460938 105.4375 41.523438 104.828125 41.96875 L 65.171875 70.6875 C 64.46875 71.195312 63.523438 71.195312 62.820312 70.6875 L 23.179688 41.96875 C 22.570312 41.523438 21.765625 41.460938 21.09375 41.804688 C 20.421875 42.148438 20 42.835938 20 43.59375 L 20 100 L 14 100 C 10.695312 100 8 97.304688 8 94 L 8 26 C 8 23.546875 9.484375 21.445312 11.59375 20.515625 Z M 104 47.5 L 104 88 C 102.898438 88 102 88.890625 102 90 L 102 94 C 102 95.109375 102.898438 96 104 96 L 104 100 L 24 100 L 24 96 C 25.101562 96 26 95.109375 26 94 L 26 90 C 26 88.890625 25.101562 88 24 88 L 24 47.507812 L 60.476562 73.921875 C 62.585938 75.453125 65.414062 75.453125 67.523438 73.921875 Z M 34 88 C 32.898438 88 32 88.890625 32 90 L 32 94 C 32 95.109375 32.898438 96 34 96 C 35.101562 96 36 95.109375 36 94 L 36 90 C 36 88.890625 35.101562 88 34 88 Z M 44 88 C 42.898438 88 42 88.890625 42 90 L 42 94 C 42 95.109375 42.898438 96 44 96 C 45.101562 96 46 95.109375 46 94 L 46 90 C 46 88.890625 45.101562 88 44 88 Z M 54 88 C 52.898438 88 52 88.890625 52 90 L 52 94 C 52 95.109375 52.898438 96 54 96 C 55.101562 96 56 95.109375 56 94 L 56 90 C 56 88.890625 55.101562 88 54 88 Z M 64 88 C 62.898438 88 62 88.890625 62 90 L 62 94 C 62 95.109375 62.898438 96 64 96 C 65.101562 96 66 95.109375 66 94 L 66 90 C 66 88.890625 65.101562 88 64 88 Z M 74 88 C 72.898438 88 72 88.890625 72 90 L 72 94 C 72 95.109375 72.898438 96 74 96 C 75.101562 96 76 95.109375 76 94 L 76 90 C 76 88.890625 75.101562 88 74 88 Z M 84 88 C 82.898438 88 82 88.890625 82 90 L 82 94 C 82 95.109375 82.898438 96 84 96 C 85.101562 96 86 95.109375 86 94 L 86 90 C 86 88.890625 85.101562 88 84 88 Z M 94 88 C 92.898438 88 92 88.890625 92 90 L 92 94 C 92 95.109375 92.898438 96 94 96 C 95.101562 96 96 95.109375 96 94 L 96 90 C 96 88.890625 95.101562 88 94 88 Z M 94 88 "/>
</g>
</svg>
