<?xml version="1.0" encoding="UTF-8"?>
<svg xmlns="http://www.w3.org/2000/svg" xmlns:xlink="http://www.w3.org/1999/xlink" viewBox="0 0 128 128" width="128px" height="128px">
<g id="surface18828514">
<path style=" stroke:none;fill-rule:nonzero;fill:rgb(99.607843%,29.411766%,29.411766%);fill-opacity:1;" d="M 26 12 C 18.28125 12 12 18.28125 12 26 L 12 102 C 12 109.71875 18.28125 116 26 116 L 102 116 C 109.71875 116 116 109.71875 116 102 L 116 26 C 116 18.28125 109.71875 12 102 12 Z M 26 16 L 102 16 C 107.515625 16 112 20.484375 112 26 L 112 102 C 112 107.515625 107.515625 112 102 112 L 26 112 C 20.484375 112 16 107.515625 16 102 L 16 30 C 16 31.101562 16.890625 32 18 32 C 19.109375 32 20 31.101562 20 30 L 20 26 C 20 24.898438 19.109375 24 18 24 C 16.890625 24 16 24.898438 16 26 C 16 20.484375 20.484375 16 26 16 Z M 28 24 C 26.890625 24 26 24.898438 26 26 L 26 30 C 26 31.101562 26.890625 32 28 32 C 29.109375 32 30 31.101562 30 30 L 30 26 C 30 24.898438 29.109375 24 28 24 Z M 38 24 C 36.890625 24 36 24.898438 36 26 L 36 30 C 36 31.101562 36.890625 32 38 32 C 39.109375 32 40 31.101562 40 30 L 40 26 C 40 24.898438 39.109375 24 38 24 Z M 48 24 C 46.890625 24 46 24.898438 46 26 L 46 30 C 46 31.101562 46.890625 32 48 32 C 49.109375 32 50 31.101562 50 30 L 50 26 C 50 24.898438 49.109375 24 48 24 Z M 58 24 C 56.890625 24 56 24.898438 56 26 L 56 30 C 56 31.101562 56.890625 32 58 32 C 59.109375 32 60 31.101562 60 30 L 60 26 C 60 24.898438 59.109375 24 58 24 Z M 68 24 C 66.890625 24 66 24.898438 66 26 L 66 30 C 66 31.101562 66.890625 32 68 32 C 69.109375 32 70 31.101562 70 30 L 70 26 C 70 24.898438 69.109375 24 68 24 Z M 78 24 C 76.890625 24 76 24.898438 76 26 L 76 30 C 76 31.101562 76.890625 32 78 32 C 79.109375 32 80 31.101562 80 30 L 80 26 C 80 24.898438 79.109375 24 78 24 Z M 88 24 C 86.890625 24 86 24.898438 86 26 L 86 30 C 86 31.101562 86.890625 32 88 32 C 89.109375 32 90 31.101562 90 30 L 90 26 C 90 24.898438 89.109375 24 88 24 Z M 98 24 C 96.890625 24 96 24.898438 96 26 L 96 30 C 96 31.101562 96.890625 32 98 32 C 99.109375 32 100 31.101562 100 30 L 100 26 C 100 24.898438 99.109375 24 98 24 Z M 108 24 C 106.890625 24 106 24.898438 106 26 L 106 30 C 106 31.101562 106.890625 32 108 32 C 109.109375 32 110 31.101562 110 30 L 110 26 C 110 24.898438 109.109375 24 108 24 Z M 58.289062 45.46875 C 55.226562 45.523438 52.710938 45.78125 50.898438 46.671875 C 49.578125 47.320312 47.585938 49.015625 47.875 50.8125 C 48.03125 51.773438 48.796875 52.507812 49.773438 52.640625 C 50.5 52.734375 51.492188 53.046875 51.890625 53.585938 C 52.414062 54.296875 52.671875 56.421875 52.664062 57.84375 C 52.929688 61.671875 52.65625 65.8125 52.09375 67.148438 C 51.445312 66.71875 49.835938 65.117188 46.375 59.132812 C 44.09375 55.195312 42.328125 50.765625 42.3125 50.710938 C 42.210938 50.484375 41.703125 49.289062 40.679688 48.539062 C 39.59375 47.75 38.273438 47.5 38.023438 47.460938 C 37.90625 47.4375 37.851562 47.414062 37.679688 47.429688 L 26.492188 47.5 C 25.882812 47.523438 23.835938 47.671875 22.726562 48.984375 C 21.523438 50.414062 22.125 52.390625 22.375 53.046875 C 22.734375 53.898438 31.359375 73.914062 41.375 84.34375 C 50.671875 94.03125 61.164062 93.8125 62.210938 93.773438 L 66.820312 93.773438 C 66.898438 93.773438 66.96875 93.773438 67.039062 93.757812 C 67.40625 93.71875 69.25 93.460938 70.414062 92.203125 C 71.570312 90.960938 71.601562 89.125 71.59375 88.773438 C 71.5625 86.359375 72.273438 83.757812 72.929688 83.53125 C 73.703125 83.609375 75.671875 85.867188 76.851562 87.21875 C 78.382812 88.96875 79.960938 90.78125 81.710938 91.984375 C 84.148438 93.664062 86.265625 93.960938 87.445312 93.960938 C 87.765625 93.960938 88.015625 93.9375 88.1875 93.914062 L 98.5625 93.773438 C 99.179688 93.734375 102.3125 93.421875 103.554688 91.0625 C 104.070312 90.070312 104.398438 88.40625 103 86.070312 C 101.296875 82.960938 97.664062 79.273438 94.921875 76.71875 L 94.734375 76.554688 C 92.84375 74.796875 91.21875 73.289062 91.203125 72.648438 C 91.1875 71.859375 92.734375 69.859375 94.695312 67.320312 C 95.476562 66.320312 96.367188 65.164062 97.375 63.820312 C 104.140625 54.804688 104.398438 51.765625 103.757812 49.992188 C 102.75 47.164062 98.734375 47.382812 97.664062 47.5 L 86.148438 47.570312 C 85.679688 47.53125 84.53125 47.515625 83.515625 48.125 C 82.4375 48.765625 81.84375 49.921875 81.632812 50.398438 C 81.617188 50.445312 79.804688 55.226562 77.445312 59.226562 C 74.25 64.65625 72.53125 66.398438 71.804688 66.953125 C 71.398438 66.007812 71.453125 63.84375 71.492188 62.585938 C 71.507812 62.078125 71.523438 61.585938 71.523438 61.125 C 71.523438 59.171875 71.59375 57.492188 71.648438 56.039062 C 71.851562 51.085938 72.007812 47.171875 67.445312 46.070312 C 66 45.71875 64.945312 45.507812 61.53125 45.46875 C 60.390625 45.460938 59.3125 45.453125 58.289062 45.46875 Z M 61.492188 49.46875 C 64.617188 49.507812 65.414062 49.695312 66.507812 49.960938 C 67.632812 50.234375 67.867188 50.476562 67.648438 55.875 C 67.585938 57.375 67.523438 59.117188 67.523438 61.125 C 67.523438 61.554688 67.507812 62.007812 67.492188 62.476562 C 67.414062 65.390625 67.3125 69.023438 69.929688 70.71875 C 70.625 71.164062 71.476562 71.296875 72.328125 71.09375 C 73.828125 70.734375 76.164062 69.296875 80.898438 61.257812 C 83.429688 56.960938 85.296875 52.007812 85.320312 51.9375 C 85.359375 51.859375 85.515625 51.601562 85.523438 51.578125 C 85.578125 51.554688 85.71875 51.554688 85.78125 51.554688 C 85.882812 51.570312 85.992188 51.578125 86.0625 51.570312 L 97.796875 51.5 C 97.867188 51.5 97.945312 51.492188 98.015625 51.484375 C 98.6875 51.40625 99.523438 51.453125 99.96875 51.5625 C 99.875 52.328125 99.125 54.820312 94.171875 61.429688 C 93.179688 62.75 92.296875 63.882812 91.53125 64.875 C 85.507812 72.664062 85.929688 73.84375 92.015625 79.492188 L 92.195312 79.65625 C 95.773438 82.96875 98.359375 85.929688 99.476562 87.992188 C 99.492188 88.015625 99.578125 88.164062 99.59375 88.1875 C 100.023438 88.890625 100 89.203125 100.007812 89.203125 C 99.867188 89.40625 99.039062 89.726562 98.40625 89.773438 L 88 89.914062 C 87.90625 89.914062 87.773438 89.929688 87.6875 89.945312 C 87.625 89.953125 86.101562 90.148438 83.96875 88.6875 C 82.640625 87.773438 81.234375 86.15625 79.867188 84.59375 C 77.601562 82 75.445312 79.53125 72.96875 79.53125 C 72.585938 79.53125 72.195312 79.585938 71.804688 79.710938 C 67.6875 81.015625 67.578125 87.53125 67.59375 88.8125 C 67.59375 89.054688 67.523438 89.40625 67.492188 89.476562 C 67.375 89.578125 66.984375 89.71875 66.6875 89.773438 L 62.15625 89.773438 C 62.125 89.773438 62.085938 89.773438 62.046875 89.78125 C 61.671875 89.804688 52.523438 90.179688 44.257812 81.570312 C 34.804688 71.734375 26.242188 51.921875 26.085938 51.5625 C 26.25 51.523438 26.421875 51.507812 26.554688 51.5 L 37.476562 51.429688 C 37.742188 51.492188 38.101562 51.617188 38.304688 51.765625 C 38.382812 51.828125 38.539062 52.0625 38.59375 52.195312 C 38.671875 52.390625 40.476562 56.9375 42.90625 61.140625 C 47.398438 68.90625 50.5 72.742188 54 70.84375 C 56.835938 69.296875 57.007812 62.765625 56.65625 57.726562 C 56.664062 57.007812 56.632812 53.289062 55.109375 51.21875 C 54.710938 50.679688 54.234375 50.242188 53.71875 49.90625 C 55.789062 49.414062 59.132812 49.445312 61.492188 49.46875 Z M 61.492188 49.46875 "/>
</g>
</svg>
