<?xml version="1.0" encoding="UTF-8"?>
<svg xmlns="http://www.w3.org/2000/svg" xmlns:xlink="http://www.w3.org/1999/xlink" viewBox="0 0 64 64" width="64px" height="64px">
<g id="surface249667874">
<path style=" stroke:none;fill-rule:nonzero;fill:rgb(99.607843%,29.411766%,29.411766%);fill-opacity:1;" d="M 32 3 C 16.011719 3 3 16.007812 3 32 C 3 47.992188 16.011719 61 32 61 C 47.988281 61 61 47.992188 61 32 C 61 16.007812 47.988281 3 32 3 Z M 32 5 C 46.886719 5 59 17.113281 59 32 C 59 46.886719 46.886719 59 32 59 C 17.113281 59 5 46.886719 5 32 C 5 17.113281 17.113281 5 32 5 Z M 32 9 C 19.316406 9 9 19.316406 9 32 C 9 32.550781 9.445312 33 10 33 C 10.554688 33 11 32.550781 11 32 C 11 20.421875 20.421875 11 32 11 C 43.578125 11 53 20.421875 53 32 C 53 43.578125 43.578125 53 32 53 C 31.445312 53 31 53.449219 31 54 C 31 54.550781 31.445312 55 32 55 C 44.683594 55 55 44.683594 55 32 C 55 19.316406 44.683594 9 32 9 Z M 41.367188 20.023438 C 40.984375 19.988281 40.5625 20.050781 40.132812 20.21875 C 39.398438 20.507812 19.394531 28.941406 18.609375 29.277344 C 17.789062 29.558594 16.878906 30.261719 17.011719 31.332031 C 17.164062 32.542969 18.429688 33.023438 18.589844 33.082031 L 23.460938 34.722656 C 23.871094 36.0625 24.992188 39.734375 25.253906 40.558594 C 25.382812 40.96875 25.714844 42.007812 26.472656 42.242188 C 27.054688 42.453125 27.632812 42.253906 28.019531 41.953125 L 30.867188 39.355469 L 35.605469 42.984375 L 35.8125 43.109375 C 36.246094 43.296875 36.632812 43.363281 36.960938 43.363281 C 37.3125 43.363281 37.601562 43.289062 37.820312 43.199219 C 38.730469 42.828125 39.09375 41.972656 39.132812 41.875 L 42.898438 22.660156 C 43.175781 21.429688 42.765625 20.773438 42.375 20.4375 C 42.097656 20.203125 41.75 20.0625 41.367188 20.023438 Z M 40.984375 22.039062 C 40.976562 22.097656 40.964844 22.164062 40.945312 22.25 L 37.253906 41.171875 C 37.214844 41.226562 37.144531 41.316406 37.066406 41.351562 C 36.964844 41.386719 36.824219 41.355469 36.714844 41.316406 L 30.757812 36.746094 L 27.1875 40.011719 L 27.941406 35.214844 C 27.941406 35.214844 37.195312 26.585938 37.59375 26.214844 C 37.992188 25.84375 37.859375 25.765625 37.859375 25.765625 C 37.886719 25.3125 37.257812 25.636719 37.257812 25.636719 L 25.082031 33.175781 L 25.074219 33.152344 L 19.253906 31.195312 C 19.246094 31.191406 19.234375 31.1875 19.226562 31.183594 C 19.257812 31.167969 19.289062 31.15625 19.324219 31.144531 C 26.515625 28.109375 40.269531 22.3125 40.867188 22.078125 C 40.90625 22.0625 40.949219 22.050781 40.984375 22.039062 Z M 12.003906 37.035156 C 11.875 37.019531 11.738281 37.03125 11.609375 37.070312 L 9.691406 37.644531 C 9.164062 37.804688 8.863281 38.363281 9.023438 38.890625 C 9.152344 39.324219 9.546875 39.605469 9.980469 39.605469 C 10.074219 39.605469 10.167969 39.589844 10.265625 39.5625 L 12.183594 38.988281 C 12.710938 38.828125 13.011719 38.269531 12.855469 37.742188 C 12.734375 37.347656 12.390625 37.078125 12.003906 37.035156 Z M 13.828125 41.761719 C 13.699219 41.78125 13.574219 41.824219 13.457031 41.894531 L 11.738281 42.921875 C 11.261719 43.207031 11.109375 43.820312 11.394531 44.292969 C 11.578125 44.605469 11.910156 44.78125 12.253906 44.78125 C 12.425781 44.78125 12.605469 44.734375 12.765625 44.640625 L 14.480469 43.613281 C 14.957031 43.328125 15.109375 42.714844 14.828125 42.242188 C 14.613281 41.882812 14.214844 41.707031 13.828125 41.761719 Z M 17.132812 45.832031 C 16.878906 45.832031 16.625 45.925781 16.425781 46.125 L 15.011719 47.539062 C 14.621094 47.925781 14.621094 48.558594 15.007812 48.953125 C 15.203125 49.148438 15.460938 49.246094 15.71875 49.246094 C 15.976562 49.246094 16.230469 49.148438 16.421875 48.953125 L 17.839844 47.539062 C 18.230469 47.148438 18.230469 46.519531 17.84375 46.128906 C 17.644531 45.929688 17.390625 45.832031 17.136719 45.832031 Z M 21.34375 49.015625 C 20.957031 48.960938 20.558594 49.136719 20.347656 49.492188 L 19.316406 51.207031 C 19.03125 51.679688 19.183594 52.292969 19.660156 52.578125 C 19.820312 52.675781 19.996094 52.722656 20.171875 52.722656 C 20.515625 52.722656 20.84375 52.546875 21.03125 52.238281 L 22.0625 50.523438 C 22.34375 50.050781 22.191406 49.433594 21.71875 49.152344 C 21.601562 49.078125 21.472656 49.035156 21.34375 49.019531 Z M 25.816406 51.097656 C 25.429688 51.140625 25.085938 51.40625 24.964844 51.804688 L 24.390625 53.71875 C 24.230469 54.246094 24.527344 54.804688 25.058594 54.964844 C 25.152344 54.992188 25.25 55.007812 25.347656 55.007812 C 25.773438 55.007812 26.171875 54.730469 26.304688 54.296875 L 26.882812 52.382812 C 27.039062 51.851562 26.742188 51.292969 26.214844 51.132812 C 26.082031 51.09375 25.945312 51.082031 25.816406 51.097656 Z M 25.816406 51.097656 "/>
</g>
</svg>
